<svg xmlns="http://www.w3.org/2000/svg" viewBox="0 0 952 177" width="952" height="177">
	<defs>
		<linearGradient id="grd1" gradientUnits="userSpaceOnUse"  x1="207.298" y1="178.632" x2="262.341" y2="-1.404">
			<stop offset="0" stop-color="#e3214b"  />
			<stop offset="0.85" stop-color="#8c1aa1"  />
		</linearGradient>
		<linearGradient id="grd2" gradientUnits="userSpaceOnUse"  x1="90.458" y1="180.111" x2="141.447" y2="13.336">
			<stop offset="0" stop-color="#e3214b"  />
			<stop offset="0.85" stop-color="#8c1aa1"  />
		</linearGradient>
	</defs>
	<style>
		tspan { white-space:pre }
		.shp0 { fill: url(#grd1) } 
		.shp1 { fill: url(#grd2) } 
	</style>
	<path id="MGN Ventures " fill="#ffffff" d="M332.84 134.13L332.66 41.14L320.25 41.14L296.2 98.92L271.77 41.14L259.28 41.14L259.28 134.13L273.45 134.13L273.45 79.53L292.56 124.3L299.37 124.3L318.58 78.33L318.67 134.13ZM392.42 113.4C388.6 116.33 384.78 117.39 380.67 117.39C368.18 117.39 359.51 105.03 359.51 87.63C359.51 69.96 368.18 57.88 380.86 57.88C387.48 57.88 392.98 61.2 397.74 68.37L407.43 55.62C401.09 45.12 391.58 39.54 380.11 39.54C359.32 39.54 344.22 59.6 344.22 87.63C344.22 115.66 359.32 135.72 379.83 135.72C389.16 135.72 399.04 131.6 406.22 123.9L406.22 86.17L392.42 86.17ZM465.15 41.14L465.15 97.6L432.7 41.14L420.21 41.14L420.21 134.13L435.12 134.13L435.12 77.67L467.66 134.13L480.06 134.13L480.06 41.14ZM569.67 41.14L549.53 107.56L529.67 41.14L513.35 41.14L541.51 134.13L556.43 134.13L584.68 41.14ZM634.47 98.66C634.47 75.68 623.09 61.6 608.36 61.6C593.07 61.6 581.6 77.01 581.6 98.39C581.6 119.65 592.88 135.19 610.23 135.19C619.27 135.19 626.26 131.2 630.92 123.63L623.19 111.68C619.74 116.33 615.91 118.58 610.6 118.58C602.95 118.58 597.64 113.14 596.24 104.24L634.19 104.24C634.28 102.51 634.47 100.25 634.47 98.66ZM608.45 77.27C614.98 77.27 619.74 83.12 620.76 92.15L596.05 92.15C597.08 82.98 601.83 77.27 608.45 77.27ZM674.65 61.6C667.85 61.6 661.97 64.92 658.06 71.03L658.06 62.66L644.16 62.66L644.16 134.13L658.71 134.13L658.71 98.79C658.71 85.64 663.74 79.53 670.74 79.53C677.17 79.53 680.9 84.84 680.9 96.4L680.9 134.13L695.44 134.13L695.44 93.21C695.44 71.43 686.49 61.6 674.65 61.6ZM737.03 116.06C735.44 117.79 733.3 118.72 731.16 118.72C727.24 118.72 724.91 115.4 724.91 109.29L724.91 80.19L737.4 80.19L737.4 64.25L724.91 64.25L724.91 46.85L710.36 46.85L710.36 64.25L702.62 64.25L702.62 80.19L710.36 80.19L710.36 109.55C710.36 126.55 717.26 135.19 729.1 135.19C733.58 135.19 737.96 133.73 740.95 130.67ZM785.14 62.66L785.14 97.99C785.14 111.15 780.29 117.26 773.58 117.26C767.15 117.26 763.42 111.94 763.42 99.99L763.42 62.66L748.87 62.66L748.87 103.04C748.87 125.09 757.73 135.19 770.32 135.19C776.47 135.19 782.06 131.87 785.89 125.63L785.89 134.13L799.69 134.13L799.69 62.66ZM827.1 72.09L827.1 62.66L813.2 62.66L813.2 134.13L827.75 134.13L827.75 100.39C827.75 86.7 833.06 80.46 841.08 80.46C842.2 80.46 843.13 80.59 844.35 80.72L844.35 61.6C836.61 61.6 830.64 65.18 827.1 72.09ZM901.69 98.66C901.69 75.68 890.31 61.6 875.58 61.6C860.29 61.6 848.82 77.01 848.82 98.39C848.82 119.65 860.1 135.19 877.45 135.19C886.49 135.19 893.48 131.2 898.14 123.63L890.41 111.68C886.96 116.33 883.13 118.58 877.82 118.58C870.17 118.58 864.86 113.14 863.46 104.24L901.41 104.24C901.5 102.51 901.69 100.25 901.69 98.66ZM875.67 77.27C882.2 77.27 886.96 83.12 887.98 92.15L863.27 92.15C864.3 82.98 869.05 77.27 875.67 77.27ZM928.26 135.19C943.27 135.19 951.94 125.76 951.94 112.47C951.94 84.31 921.64 96.13 921.64 83.91C921.64 80.19 924.44 77.27 930.96 77.27C935.53 77.27 940.47 78.6 945.42 82.58L950.26 67.84C945.51 63.85 937.86 61.6 930.96 61.6C916.33 61.6 907.75 71.16 907.75 84.71C907.75 113.27 938.05 101.32 938.05 113.01C938.05 116.99 935.53 119.51 928.82 119.51C922.67 119.51 915.86 116.72 911.38 112.61L906.54 127.48C911.2 131.87 919.78 135.19 928.26 135.19Z" />
	<path id="MGN Ventures " fill="#e3214b" d="" />
	<path id=". " fill="#f5235f" d="M507.14 137C513.44 137 518.45 131.33 518.45 123.44C518.45 115.42 513.44 110.17 507.14 110.17C500.84 110.17 495.83 115.42 495.83 123.44C495.83 131.33 500.84 137 507.14 137Z" />
	<path id="Path 5" fill-rule="evenodd" class="shp0" d="M150.39 167.38L110.68 167.14C107.81 167.13 105.5 165 105.52 162.39C105.54 159.79 107.89 157.69 110.76 157.71L126.78 157.73C129.66 157.75 132.02 155.64 132.04 153.03C132.06 150.42 129.74 148.28 126.86 148.27C126.55 148.26 73.79 148.02 56.9 147.95C54.04 147.94 51.78 145.79 51.8 143.21C51.82 140.6 54.18 138.51 57.05 138.53C68.68 138.63 95.79 138.84 96.05 138.84C98.94 138.86 101.29 136.76 101.31 134.14C101.34 131.58 99.1 129.48 96.29 129.39L96.28 129.32L82.2 129.24C79.32 129.22 77.01 127.09 77.03 124.49C77.06 121.89 79.41 119.79 82.28 119.81L106.43 119.84C108.92 119.49 110.83 117.56 110.85 115.2C110.87 112.59 108.56 110.46 105.67 110.44C105.42 110.44 64.23 110.24 44.72 110.14C41.85 110.13 39.52 108.01 39.54 105.4C39.57 102.8 41.91 100.7 44.78 100.72C58.14 100.81 66.4 100.88 66.58 100.88C69.46 100.9 71.81 98.8 71.84 96.18C71.88 91.43 66.66 91.41 66.66 91.41L26.15 91.17C23.28 91.15 20.97 89.03 20.99 86.42C21.01 83.81 23.39 81.72 26.27 81.74C45.51 81.85 84.85 82.1 84.92 82.1C87.8 82.11 90.15 80.01 90.18 77.39C90.2 74.78 87.88 72.65 85 72.63C84.89 72.63 58.74 72.49 47.31 72.43C44.42 72.41 42.08 70.3 42.1 67.68C42.12 65.08 44.46 62.98 47.33 63C62.7 63.11 106.92 63.42 107.17 63.42C110.05 63.44 112.4 61.34 112.42 58.72C112.45 56.11 110.13 53.98 107.25 53.96C107.19 53.96 35.67 53.5 15.55 53.37C12.68 53.35 10.36 51.23 10.39 48.62C10.41 46.02 12.76 43.92 15.64 43.94C34.76 44.06 100.07 44.48 100.26 44.48C103.14 44.5 105.5 42.4 105.52 39.78C105.54 37.37 103.8 35.08 99 35.05C90.08 35 68.67 34.82 68.67 34.82C65.8 34.8 63.49 32.68 63.51 30.07C63.54 27.47 65.88 25.37 68.76 25.39C68.76 25.39 109.42 25.63 123.34 25.71C126.67 25.73 131.27 25.89 131.41 21.06C131.48 18.48 129.76 16.32 126.12 16.29C125.59 16.29 87.88 16.07 87.88 16.07C85.01 16.05 82.7 13.92 82.72 11.32C82.74 8.71 85.09 6.62 87.96 6.63L152.45 7.02C161.81 7.07 166.37 10.62 168.38 11.97C182.49 21.4 209.38 44.99 209 87.54C208.63 128.86 177.59 154.92 164.79 163.91C163.92 164.52 159.46 167.43 150.39 167.38ZM156.19 115.28C173.27 115.39 187.24 102.91 187.38 87.41C187.52 71.92 173.77 59.28 156.69 59.17C139.6 59.07 125.63 71.55 125.49 87.04C125.36 102.54 139.1 115.18 156.19 115.28ZM156.33 99.55C148.82 99.5 142.79 93.95 142.85 87.15C142.91 80.35 149.04 74.87 156.55 74.91C164.05 74.96 170.08 80.51 170.02 87.31C169.96 94.11 163.83 99.59 156.33 99.55Z" />
	<path id="Path 4" class="shp1" d="M41.44 149.41C38.41 149.39 35.98 147.15 36 144.41C36.03 141.66 38.5 139.45 41.53 139.47C44.55 139.49 46.99 141.73 46.96 144.47C46.94 147.22 44.46 149.43 41.44 149.41ZM96.35 169.69C93.33 169.67 90.89 167.43 90.92 164.69C90.94 161.94 93.41 159.73 96.44 159.75C99.47 159.77 101.9 162.01 101.88 164.75C101.85 167.5 99.38 169.71 96.35 169.69ZM-0.97 50.24C-3.99 50.22 -6.43 47.98 -6.4 45.24C-6.38 42.49 -3.9 40.28 -0.88 40.3C2.15 40.32 4.58 42.56 4.56 45.3C4.53 48.05 2.06 50.26 -0.97 50.24ZM31.18 70.33C28.16 70.31 25.72 68.07 25.75 65.33C25.77 62.58 28.25 60.38 31.27 60.39C34.3 60.41 36.73 62.65 36.71 65.4C36.68 68.14 34.21 70.35 31.18 70.33ZM54.92 30.72C51.89 30.7 49.46 28.46 49.48 25.72C49.51 22.97 51.98 20.76 55.01 20.78C58.03 20.8 60.47 23.04 60.44 25.78C60.42 28.53 57.94 30.74 54.92 30.72ZM9.64 89.91C6.62 89.9 4.18 87.66 4.21 84.91C4.23 82.17 6.7 79.96 9.73 79.98C12.76 80 15.19 82.24 15.17 84.98C15.14 87.72 12.67 89.93 9.64 89.91ZM30.02 109.81C26.99 109.79 24.56 107.55 24.58 104.81C24.6 102.06 27.08 99.86 30.1 99.87C33.13 99.89 35.56 102.13 35.54 104.87C35.52 107.62 33.04 109.83 30.02 109.81ZM69.85 129.63C66.83 129.61 64.39 127.37 64.42 124.63C64.44 121.89 66.92 119.68 69.94 119.69C72.97 119.71 75.4 121.95 75.38 124.7C75.35 127.44 72.88 129.65 69.85 129.63Z" />
</svg>