<svg xmlns="http://www.w3.org/2000/svg" viewBox="0 0 845 177" width="845" height="177">
	<style>
		tspan { white-space:pre }
		.shp0 { fill: #ff0000 } 
	</style>
	<path id="MGNVentures " fill="#ffffff" d="M275.33 126.13L275.14 50.69L262.88 50.69L239.08 97.57L214.92 50.69L202.56 50.69L202.56 126.13L216.58 126.13L216.58 81.83L235.48 118.15L242.22 118.15L261.22 80.86L261.31 126.13ZM334.26 109.31C330.48 111.69 326.7 112.55 322.64 112.55C310.28 112.55 301.7 102.53 301.7 88.41C301.7 74.07 310.28 64.27 322.83 64.27C329.37 64.27 334.82 66.96 339.52 72.78L349.11 62.44C342.84 53.92 333.43 49.4 322.09 49.4C301.52 49.4 286.58 65.67 286.58 88.41C286.58 111.15 301.52 127.42 321.81 127.42C331.03 127.42 340.81 124.08 347.91 117.83L347.91 87.22L334.26 87.22ZM406.2 50.69L406.2 96.49L374.11 50.69L361.75 50.69L361.75 126.13L376.5 126.13L376.5 80.33L408.69 126.13L420.96 126.13L420.96 50.69ZM486.54 50.69L460.43 119.01L434.33 50.69L429.17 50.69L457.94 126.13L462.65 126.13L491.42 50.69ZM537.45 97.78C537.45 81.08 527.67 69.44 514.48 69.44C501.29 69.44 491.42 81.3 491.42 98C491.42 114.7 501.66 126.56 516.23 126.56C523.52 126.56 530.16 123.43 534.4 117.4L531.73 113.84C528.04 119.12 522.41 121.71 516.33 121.71C504.8 121.71 496.4 112.66 495.94 99.29L537.36 99.29C537.36 98.75 537.45 98.21 537.45 97.78ZM514.48 74.18C524.72 74.18 532.28 82.91 532.93 95.09L496.04 95.09C496.77 82.8 504.24 74.18 514.48 74.18ZM575.26 69.44C566.13 69.44 559.4 74.18 556.17 82.05L556.17 69.87L551.74 69.87L551.74 126.13L556.35 126.13L556.35 96.17C556.35 82.8 563.27 74.29 574.62 74.29C584.39 74.29 590.2 80.97 590.2 93.69L590.2 126.13L594.82 126.13L594.82 93.26C594.82 77.52 586.98 69.44 575.26 69.44ZM635.77 118.8C633.83 120.85 631.15 121.92 628.3 121.92C622.39 121.92 619.35 117.94 619.35 110.72L619.35 74.51L634.66 74.51L634.66 69.87L619.35 69.87L619.35 57.59L614.74 57.59L614.74 69.87L605.88 69.87L605.88 74.51L614.74 74.51L614.74 111.25C614.74 120.74 619.35 126.56 627.83 126.56C631.43 126.56 635.3 125.26 637.7 122.57ZM688.06 69.87L688.06 99.83C688.06 113.19 681.33 121.71 670.44 121.71C660.39 121.71 654.58 115.03 654.58 102.31L654.58 69.87L649.97 69.87L649.97 102.74C649.97 118.48 657.81 126.56 670.08 126.56C678.56 126.56 685.11 121.92 688.25 114.06L688.25 126.13L692.67 126.13L692.67 69.87ZM716.65 82.16L716.65 69.87L712.23 69.87L712.23 126.13L716.84 126.13L716.84 96.81C716.84 82.91 723.2 74.61 733.9 74.61C734.27 74.61 734.64 74.72 735.01 74.72L735.01 69.44C725.97 69.44 719.6 73.97 716.65 82.16ZM788.04 97.78C788.04 81.08 778.26 69.44 765.07 69.44C751.88 69.44 742.02 81.3 742.02 98C742.02 114.7 752.25 126.56 766.83 126.56C774.11 126.56 780.75 123.43 785 117.4L782.32 113.84C778.63 119.12 773.01 121.71 766.92 121.71C755.39 121.71 747 112.66 746.54 99.29L787.95 99.29C787.95 98.75 788.04 98.21 788.04 97.78ZM765.07 74.18C775.31 74.18 782.87 82.91 783.52 95.09L746.63 95.09C747.37 82.8 754.84 74.18 765.07 74.18ZM814.51 126.56C826.78 126.56 833.51 120.31 833.51 111.15C833.51 89.7 801.6 101.66 801.6 84.74C801.6 78.71 805.75 74.18 815.16 74.18C820.32 74.18 825.58 75.8 829.64 79.25L831.76 74.94C827.98 71.6 821.33 69.44 815.25 69.44C803.07 69.44 796.99 76.34 796.99 84.85C796.99 106.94 828.9 94.87 828.9 111.25C828.9 117.61 824.84 121.82 814.69 121.82C807.59 121.82 801.04 118.69 797.35 115.03L795.23 119.34C799.01 123.43 806.58 126.56 814.51 126.56Z" />
	<path id="Path 2" class="shp0" d="M143.29 162.14C137.96 162.14 132.94 160.06 129.18 156.3C125.41 152.54 123.33 147.53 123.33 142.2C123.33 136.87 125.41 131.87 129.17 128.1C132.94 124.34 137.95 122.26 143.28 122.26C148.61 122.26 153.61 124.33 157.38 128.1C165.15 135.88 165.15 148.53 157.38 156.31C153.61 160.07 148.61 162.14 143.29 162.14ZM34.95 55.81C29.62 55.81 24.61 53.73 20.84 49.96C17.08 46.2 15 41.19 15 35.86C15 30.53 17.07 25.53 20.83 21.77C24.61 18 29.62 15.92 34.95 15.92C40.27 15.92 45.28 17.99 49.04 21.76C52.81 25.53 54.89 30.54 54.89 35.86C54.89 41.19 52.81 46.2 49.04 49.97C45.28 53.73 40.27 55.81 34.95 55.81ZM142.39 55.22C137.06 55.22 132.06 53.14 128.29 49.38C120.52 41.6 120.51 28.95 128.28 21.18C132.05 17.41 137.06 15.33 142.39 15.33C147.71 15.33 152.72 17.41 156.49 21.18C164.26 28.95 164.26 41.61 156.49 49.39C152.73 53.15 147.72 55.22 142.39 55.22ZM35.47 162.14C30.14 162.14 25.13 160.06 21.36 156.3C17.59 152.53 15.52 147.53 15.52 142.2C15.52 136.87 17.6 131.87 21.37 128.1C22.16 127.3 23.05 126.58 24.18 125.81C24.52 125.58 24.83 125.39 25.16 125.19C25.89 124.77 26.63 124.38 27.32 124.07C27.69 123.9 28.07 123.73 28.48 123.57C29.19 123.31 30 123.07 30.91 122.85C31.09 122.8 31.25 122.76 31.42 122.71C31.52 122.69 31.62 122.65 31.72 122.63L36.16 122.32C36.72 122.35 37.33 122.42 37.97 122.5L38.22 122.54C38.37 122.56 38.58 122.57 38.78 122.58L38.96 122.6L39.16 122.64L39.34 122.64C39.66 122.65 39.99 122.66 40.31 122.66C47.96 122.66 55.52 119.4 61.04 113.72C66.53 108.06 69.56 100.46 69.34 92.85L69.34 92.62L69.3 92.38C69.25 92.17 69.24 91.96 69.23 91.74C69.21 91.49 69.19 91.23 69.16 90.98L69.11 90.53C69.06 90.15 69.02 89.77 68.99 89.39L69.34 84.93C69.36 84.82 69.4 84.72 69.43 84.61L69.51 84.34C69.71 83.49 69.93 82.65 70.25 81.83C70.41 81.36 70.57 81.02 70.74 80.67C71.1 79.89 71.46 79.18 71.9 78.46C72.09 78.14 72.27 77.82 72.48 77.51C73.29 76.34 74.02 75.44 74.78 74.68C78.55 70.91 83.55 68.84 88.89 68.84C94.22 68.84 99.23 70.91 103 74.67C110.77 82.45 110.76 95.1 102.98 102.88C102.2 103.67 101.3 104.39 100.17 105.17C99.84 105.4 99.52 105.58 99.21 105.77C98.49 106.2 97.77 106.58 97.05 106.91C96.66 107.08 96.27 107.26 95.89 107.4C95.13 107.69 94.32 107.93 93.47 108.12L92.99 108.25C92.89 108.28 92.78 108.32 92.67 108.35L88.19 108.66C87.66 108.64 87.11 108.57 86.53 108.5L86.13 108.45C86 108.43 85.79 108.41 85.58 108.4L85.42 108.38L85.19 108.34L85.01 108.34C84.69 108.33 84.36 108.32 84.04 108.32C76.39 108.32 68.84 111.58 63.32 117.26C57.82 122.91 54.79 130.53 55.01 138.14L55.02 138.37L55.06 138.59C55.1 138.81 55.11 139.02 55.13 139.24C55.15 139.49 55.17 139.75 55.2 140C55.21 140.15 55.24 140.43 55.27 140.69C55.31 141 55.35 141.3 55.35 141.6L55.35 141.71L55.03 145.98C55 146.07 54.86 146.56 54.82 146.72C54.61 147.63 54.36 148.45 54.09 149.18C53.94 149.59 53.79 149.94 53.61 150.31C53.27 151.07 52.89 151.79 52.46 152.53C52.28 152.83 52.05 153.19 51.83 153.53C51.09 154.6 50.35 155.51 49.56 156.3C45.81 160.06 40.8 162.14 35.47 162.14L35.47 162.14ZM89.32 162.14C83.99 162.14 78.98 160.06 75.21 156.29C71.44 152.53 69.37 147.52 69.37 142.2C69.37 136.87 71.44 131.87 75.2 128.11C75.97 127.34 76.84 126.63 78.04 125.8C78.33 125.6 78.65 125.41 78.98 125.22C79.72 124.78 80.42 124.41 81.15 124.07C81.54 123.89 81.92 123.72 82.31 123.57C83.05 123.3 83.86 123.06 84.71 122.87C84.71 122.87 85.41 122.67 85.5 122.65L90.01 122.32C90.54 122.34 91.12 122.42 91.72 122.5L92.05 122.54C92.27 122.56 92.46 122.58 92.64 122.58C92.72 122.59 92.79 122.59 92.86 122.6L93.01 122.62L93.19 122.63C93.52 122.64 93.86 122.65 94.19 122.65C101.83 122.65 109.37 119.4 114.88 113.72C120.37 108.07 123.4 100.46 123.18 92.85L123.16 91.92L123.07 91.81C123.07 91.78 123.07 91.75 123.07 91.71C123.05 91.5 123.04 91.28 123.02 91.06L122.95 90.42C122.9 90.07 122.86 89.72 122.85 89.37L123.16 85.05C123.18 84.95 123.33 84.41 123.37 84.25C123.62 83.22 123.85 82.47 124.1 81.8C124.24 81.39 124.42 81.03 124.59 80.64C124.91 79.94 125.28 79.24 125.74 78.46L125.83 78.32C125.98 78.05 126.13 77.79 126.31 77.54C127.13 76.35 127.85 75.46 128.62 74.69C132.39 70.92 137.4 68.84 142.73 68.84C148.06 68.84 153.06 70.92 156.83 74.68C164.6 82.45 164.6 95.11 156.83 102.9C156.08 103.65 155.18 104.37 154.01 105.18C153.78 105.34 153.56 105.47 153.35 105.6L153 105.81C152.33 106.21 151.6 106.59 150.9 106.91C150.5 107.09 150.12 107.26 149.73 107.41C149.03 107.67 148.26 107.9 147.29 108.13C147.09 108.18 146.94 108.22 146.78 108.27C146.67 108.3 146.57 108.33 146.47 108.36L142.03 108.66C141.39 108.64 140.68 108.54 140 108.45C139.77 108.42 139.59 108.41 139.42 108.4C139.35 108.4 139.28 108.4 139.21 108.39L138.84 108.35C138.51 108.34 138.18 108.33 137.85 108.33C130.21 108.33 122.67 111.59 117.15 117.26C111.66 122.92 108.63 130.53 108.86 138.15L108.86 138.37L108.91 138.59C108.95 138.81 108.96 139.04 108.98 139.27C108.99 139.5 109.01 139.73 109.03 139.96C109.05 140.15 109.08 140.39 109.1 140.62C109.14 140.96 109.18 141.3 109.19 141.64L108.86 146.01C108.84 146.11 108.67 146.7 108.67 146.7C108.46 147.63 108.22 148.44 107.94 149.2C107.8 149.56 107.65 149.91 107.49 150.27L107.43 150.39C107.1 151.11 106.73 151.81 106.31 152.5C106.11 152.84 105.91 153.17 105.7 153.49C104.92 154.62 104.18 155.53 103.39 156.32C99.64 160.07 94.65 162.14 89.32 162.14ZM35.48 108.3C30.15 108.3 25.14 106.22 21.37 102.46C17.6 98.69 15.53 93.68 15.52 88.35C15.52 83.03 17.59 78.03 21.36 74.26C22.13 73.49 23.03 72.76 24.19 71.96C24.49 71.76 24.83 71.55 25.17 71.35C25.86 70.94 26.56 70.57 27.31 70.22C27.7 70.05 28.08 69.87 28.49 69.72C29.22 69.45 30.03 69.22 30.87 69.03L31.38 68.89C31.47 68.86 31.56 68.83 31.66 68.81L36.17 68.48C36.75 68.5 37.39 68.59 38.05 68.68L38.19 68.7C38.42 68.72 38.6 68.73 38.78 68.74C38.85 68.74 38.91 68.74 38.98 68.75L39.17 68.79L39.36 68.79C39.69 68.8 40.02 68.81 40.35 68.81C47.99 68.81 55.53 65.56 61.04 59.88C66.53 54.22 69.55 46.61 69.34 39L69.33 38.78L69.29 38.56C69.24 38.32 69.23 38.07 69.22 37.83C69.21 37.63 69.19 37.43 69.17 37.22L69.1 36.6C69.06 36.24 69.01 35.87 69 35.5L69.3 31.31L69.33 31.21L69.33 31.13C69.35 31.03 69.52 30.47 69.52 30.47C69.77 29.4 70 28.63 70.25 27.94C70.39 27.57 70.57 27.19 70.75 26.8C71.07 26.09 71.45 25.36 71.89 24.62L71.96 24.51C72.13 24.22 72.3 23.93 72.5 23.64C73.29 22.5 74.01 21.6 74.77 20.85C78.54 17.08 83.55 15 88.88 15C94.21 15 99.22 17.07 102.99 20.84C110.76 28.62 110.76 41.27 102.98 49.04C102.21 49.82 101.3 50.56 100.17 51.32C99.87 51.54 99.6 51.69 99.33 51.85L99.18 51.94C98.45 52.37 97.73 52.76 97.05 53.07C96.65 53.25 96.27 53.42 95.89 53.56C95.14 53.84 94.35 54.08 93.45 54.28C93.27 54.33 93.1 54.38 92.93 54.43C92.82 54.45 92.72 54.49 92.61 54.51L88.19 54.82C87.63 54.79 87.03 54.72 86.41 54.64L86.14 54.61C85.93 54.58 85.74 54.57 85.56 54.56C85.49 54.56 85.41 54.56 85.34 54.54L85.19 54.53L85 54.51C84.67 54.5 84.34 54.49 84.01 54.49C76.37 54.49 68.83 57.74 63.32 63.41C57.82 69.07 54.79 76.69 55.01 84.3L55.02 84.53L55.06 84.75C55.1 84.97 55.11 85.2 55.13 85.43C55.14 85.66 55.16 85.89 55.19 86.12C55.2 86.31 55.23 86.55 55.26 86.78C55.3 87.12 55.34 87.44 55.35 87.77L55.03 92.12C55 92.23 54.97 92.35 54.93 92.46L54.82 92.85C54.6 93.83 54.36 94.63 54.1 95.36C53.96 95.73 53.77 96.12 53.59 96.52C53.26 97.24 52.89 97.94 52.46 98.67C52.25 99.01 52.06 99.34 51.85 99.64C51.04 100.83 50.33 101.7 49.56 102.46C45.8 106.23 40.8 108.3 35.48 108.3Z" />
</svg>